<svg width="21" height="20" viewBox="0 0 21 20" fill="none" xmlns="http://www.w3.org/2000/svg">
  <g id="google">
    <g id="Vector">
      <path
        d="M17.997 10.168a7.198 7.198 0 0 1-.544 2.995 7.321 7.321 0 0 1-1.738 2.52l-2.483-1.889c.398-.255.74-.586 1.004-.974.264-.387.446-.824.533-1.282h-4.117V8.634h7.206c.093.506.14 1.02.139 1.534Z"
        fill="#4285F4"
      />
      <path
        d="M15.715 15.683a7.394 7.394 0 0 1-5.064 1.814 7.767 7.767 0 0 1-4.012-1.118 7.557 7.557 0 0 1-2.818-3.013l1.961-1.52.557-.416c.22.654.591 1.25 1.084 1.74a4.61 4.61 0 0 0 1.756 1.095 4.685 4.685 0 0 0 4.025-.47l2.511 1.888Z"
        fill="#34A853"
      />
      <path
        d="M6.123 9.999c.002.485.084.966.243 1.425l-.556.415-1.99 1.52A7.303 7.303 0 0 1 3 10c0-1.168.281-2.32.82-3.36l2.546 1.935c-.159.46-.24.94-.243 1.425Z"
        fill="#FBBC05"
      />
      <path
        d="M15.77 4.457 13.58 6.59a4.221 4.221 0 0 0-2.929-1.105 4.632 4.632 0 0 0-2.648.87 4.484 4.484 0 0 0-1.637 2.218L3.821 6.638a7.557 7.557 0 0 1 2.816-3.017 7.768 7.768 0 0 1 4.014-1.12c1.9-.023 3.736.679 5.12 1.956Z"
        fill="#EA4335"
      />
    </g>
  </g>
</svg>
